<svg xmlns="http://www.w3.org/2000/svg" width="39" height="40" viewBox="0 0 39 40"><defs><style>.a{fill:none;}.b{fill:#231f20;}</style></defs><g transform="translate(-0.167)"><rect class="a" width="39" height="40" transform="translate(0.167)"/><path class="b" d="M24.765,4.5A8.989,8.989,0,0,0,18.01,7.637,8.989,8.989,0,0,0,11.256,4.5,8.175,8.175,0,0,0,3,12.756c0,5.674,5.1,10.3,12.834,17.322l2.176,1.966,2.176-1.981c7.73-7.01,12.834-11.633,12.834-17.307A8.175,8.175,0,0,0,24.765,4.5Zm-6.6,23.341-.15.15-.15-.15C10.715,21.371,6,17.093,6,12.756A5.13,5.13,0,0,1,11.256,7.5a5.868,5.868,0,0,1,5.359,3.542h2.807A5.831,5.831,0,0,1,24.765,7.5a5.13,5.13,0,0,1,5.254,5.254C30.018,17.093,25.3,21.371,18.16,27.841Z" transform="translate(2 1.35)"/></g></svg>