<?xml version="1.0" encoding="utf-8"?>
<!-- Generator: Adobe Illustrator 19.0.0, SVG Export Plug-In . SVG Version: 6.00 Build 0)  -->
<svg version="1.1" id="Layer_1" xmlns="http://www.w3.org/2000/svg" xmlns:xlink="http://www.w3.org/1999/xlink" x="0px" y="0px"
	 viewBox="0 0 96.2 89.4" style="enable-background:new 0 0 96.2 89.4;" xml:space="preserve">
<style type="text/css">
	.st0{fill:#E31A51;}
</style>
<g>
	<path class="st0" d="M94.2,18.4c-1.8-2.3-4.6-3.7-7.5-3.7H25.8l-1.9-7.4C22.8,3,19,0,14.6,0H4.3C2.6,0,1.3,1.4,1.3,3.1
		s1.4,3.1,3.1,3.1h10.2c1.5,0,2.8,1,3.2,2.5L30,57.3c1.1,4.3,4.9,7.3,9.3,7.3h39.9c4.4,0,8.3-3,9.3-7.3L96,26.5
		C96.7,23.7,96.1,20.7,94.2,18.4z M89.8,25.1l-7.5,30.8c-0.4,1.5-1.7,2.5-3.2,2.5H39.3c-1.5,0-2.8-1-3.2-2.5L27.3,21h59.3
		c1,0,2,0.5,2.6,1.3C89.8,23.1,90.2,24.1,89.8,25.1z"/>
	<path class="st0" d="M41.3,68.6c-5.7,0-10.4,4.7-10.4,10.4c0,5.7,4.7,10.4,10.4,10.4S51.8,84.7,51.8,79
		C51.8,73.3,47,68.6,41.3,68.6z M41.3,83.1c-2.3,0-4.1-1.8-4.1-4.1c0-2.3,1.8-4.1,4.1-4.1s4.1,1.8,4.1,4.1
		C45.5,81.2,43.5,83.1,41.3,83.1z"/>
	<path class="st0" d="M75.8,68.6c-5.7,0-10.4,4.7-10.4,10.4c0,5.7,4.7,10.4,10.4,10.4c5.7,0,10.4-4.7,10.4-10.4
		C86.1,73.3,81.4,68.6,75.8,68.6z M75.8,83.1c-2.3,0-4.1-1.8-4.1-4.1c0-2.3,1.8-4.1,4.1-4.1c2.3,0,4.1,1.8,4.1,4.1
		C79.8,81.2,77.9,83.1,75.8,83.1z"/>
</g>
</svg>
