<?xml version="1.0" encoding="utf-8"?>
<!-- Generator: Adobe Illustrator 24.1.2, SVG Export Plug-In . SVG Version: 6.00 Build 0)  -->
<svg version="1.1" id="Layer_1" xmlns="http://www.w3.org/2000/svg" xmlns:xlink="http://www.w3.org/1999/xlink" x="0px" y="0px"
	 viewBox="0 0 20 20" style="enable-background:new 0 0 20 20;" xml:space="preserve">
<style type="text/css">
	.st0{fill:#E21C52;}
</style>
<path class="st0" d="M17.77,16.62l-2.98-2.96c2.26-2.82,2.05-6.98-0.53-9.56C12.9,2.75,11.12,2,9.2,2S5.47,2.75,4.11,4.1
	s-2.1,3.14-2.1,5.08s0.75,3.73,2.1,5.08c1.36,1.33,3.14,2.1,5.08,2.1c1.62,0,3.22-0.56,4.47-1.57l2.96,2.96
	c0.16,0.16,0.35,0.24,0.56,0.24c0.21,0,0.43-0.08,0.56-0.24C18.06,17.44,18.06,16.94,17.77,16.62z M14.79,9.19
	c0,1.49-0.59,2.9-1.65,3.94s-2.45,1.65-3.94,1.65s-2.9-0.59-3.94-1.65s-1.65-2.45-1.65-3.94s0.59-2.9,1.65-3.94S7.68,3.6,9.2,3.6
	c1.49,0,2.9,0.59,3.94,1.65S14.79,7.67,14.79,9.19z"/>
</svg>
